<?xml version="1.0" encoding="UTF-8"?>
<svg id="Layer_1" xmlns="http://www.w3.org/2000/svg" version="1.1" viewBox="0 0 199.1 34.9" width="685" height="120">
  <!-- Generator: Adobe Illustrator 30.0.0, SVG Export Plug-In . SVG Version: 2.1.1 Build 123)  -->
  <defs>
    <style>
      .st0 {
        fill: #1f2023;
      }

      .st1 {
        fill: #e62730;
      }
    </style>
  </defs>
  <g>
    <polygon class="st0" points="46.7 34.5 46.7 34 49.7 29.7 46.7 29.7 46.7 29.1 50.6 29.1 50.6 29.7 47.6 33.9 50.7 33.9 50.7 34.5 46.7 34.5"/>
    <g>
      <path class="st0" d="M56.8,31.8c0-1.3-.8-2.2-2-2.2s-2,.9-2,2.2.8,2.2,2,2.2,2-.9,2-2.2M52.1,31.8c0-1.6,1.1-2.8,2.7-2.8s2.7,1.2,2.7,2.8-1.1,2.8-2.7,2.8-2.7-1.2-2.7-2.8"/>
      <path class="st0" d="M63.2,31.8c0-1.2-.7-2.1-2.1-2.1h-1.2v4.2h1.2c1.4,0,2.1-.9,2.1-2.1M59.3,34.5v-5.4h1.8c1.7,0,2.8,1.2,2.8,2.7s-1.1,2.7-2.8,2.7h-1.8Z"/>
      <path class="st0" d="M68.9,30.8c0-.6-.4-1-1.1-1h-1.4v2.1h1.4c.7,0,1.1-.5,1.1-1.1M65.8,34.5v-5.4h2.2c1.1,0,1.7.7,1.7,1.6s-.6,1.6-1.7,1.6h-1.5v2.1h-.7Z"/>
      <path class="st0" d="M75.8,31.8c0-1.3-.8-2.2-2-2.2s-2,.9-2,2.2.8,2.2,2,2.2,2-.9,2-2.2M71.1,31.8c0-1.6,1.1-2.8,2.7-2.8s2.7,1.2,2.7,2.8-1.1,2.8-2.7,2.8-2.7-1.2-2.7-2.8"/>
    </g>
    <polygon class="st0" points="79.8 34.5 77.6 29.1 78.4 29.1 80.2 33.8 82 29.1 82.8 29.1 80.6 34.5 79.8 34.5"/>
    <polygon class="st0" points="84.3 34.5 84.3 29.1 87.8 29.1 87.8 29.7 84.9 29.7 84.9 31.5 87.8 31.5 87.8 32.1 84.9 32.1 84.9 33.9 87.8 33.9 87.8 34.5 84.3 34.5"/>
    <path class="st0" d="M93.6,31.8c0-1.2-.7-2.1-2.1-2.1h-1.2v4.2h1.2c1.3,0,2.1-.9,2.1-2.1M89.7,34.5v-5.4h1.8c1.7,0,2.8,1.2,2.8,2.7s-1.1,2.7-2.8,2.7h-1.8Z"/>
    <polygon class="st0" points="99.9 34.5 96.8 30.2 96.8 34.5 96.1 34.5 96.1 29.1 96.8 29.1 99.9 33.3 99.9 29.1 100.6 29.1 100.6 34.5 99.9 34.5"/>
    <polygon class="st0" points="102.7 34.5 102.7 29.1 106.2 29.1 106.2 29.7 103.3 29.7 103.3 31.5 106.1 31.5 106.1 32.1 103.3 32.1 103.3 33.9 106.2 33.9 106.2 34.5 102.7 34.5"/>
    <polygon class="st0" points="114.2 34.5 112.2 32.1 111.6 32.7 111.6 34.5 111 34.5 111 29.1 111.6 29.1 111.6 31.9 114 29.1 114.9 29.1 112.6 31.7 115.1 34.5 114.2 34.5"/>
    <g>
      <path class="st0" d="M122.8,33c0-.5-.3-.9-1-.9h-1.7v1.9h1.7c.7-.1,1-.4,1-1M122.7,30.6c0-.5-.3-.9-.9-.9h-1.6v1.7h1.6c.6.1.9-.3.9-.8M119.5,34.5v-5.4h2.4c.9,0,1.5.6,1.5,1.4s-.5,1.1-.9,1.2c.6,0,1.1.7,1.1,1.3,0,.9-.6,1.5-1.6,1.5h-2.5Z"/>
      <path class="st0" d="M125.4,32.4v-3.3h.7v3.3c0,1,.5,1.6,1.5,1.6s1.5-.6,1.5-1.6v-3.3h.7v3.3c0,1.3-.7,2.2-2.2,2.2s-2.2-.8-2.2-2.2"/>
      <path class="st0" d="M135.8,31.8c0-1.2-.7-2.1-2.1-2.1h-1.2v4.2h1.2c1.3,0,2.1-.9,2.1-2.1M131.9,34.5v-5.4h1.8c1.7,0,2.8,1.2,2.8,2.7s-1.1,2.7-2.8,2.7h-1.8Z"/>
      <path class="st0" d="M140.4,28.6h-.5l1.2-1.2h.6l-1.3,1.2ZM138.3,32.4v-3.3h.7v3.3c0,1,.5,1.6,1.5,1.6s1.5-.6,1.5-1.6v-3.3h.7v3.3c0,1.3-.7,2.2-2.2,2.2s-2.2-.8-2.2-2.2"/>
      <path class="st0" d="M144.6,31.8c0-1.7,1.2-2.8,2.8-2.8s1.6.5,2,1.1l-.6.3c-.3-.5-.9-.8-1.5-.8-1.2,0-2.1.9-2.1,2.2s.9,2.2,2.1,2.2,1.2-.3,1.5-.8l.6.3c-.5.6-1.1,1.1-2,1.1-1.6,0-2.8-1.1-2.8-2.8"/>
    </g>
    <polygon class="st0" points="154.9 34.5 151.7 30.2 151.7 34.5 151.1 34.5 151.1 29.1 151.7 29.1 154.8 33.3 154.8 29.1 155.5 29.1 155.5 34.5 154.9 34.5"/>
    <g>
      <path class="st0" d="M162,31.8c0-1.3-.8-2.2-2-2.2s-2,.9-2,2.2.8,2.2,2,2.2,2-.9,2-2.2M157.4,31.8c0-1.6,1.1-2.8,2.7-2.8s2.7,1.2,2.7,2.8-1.1,2.8-2.7,2.8-2.7-1.2-2.7-2.8"/>
      <path class="st0" d="M164.2,33.8l.4-.5c.3.4.9.8,1.7.8s1.3-.5,1.3-.9c0-1.4-3.2-.6-3.2-2.5s.8-1.5,1.9-1.5,1.5.3,1.9.8l-.4.5c-.4-.5-1-.6-1.6-.6s-1.1.3-1.1.9c0,1.2,3.2.5,3.2,2.5s-.5,1.6-2,1.6c-.9-.3-1.6-.6-2.1-1.1"/>
    </g>
    <polygon class="st0" points="171.4 34.5 171.4 29.7 169.7 29.7 169.7 29.1 173.8 29.1 173.8 29.7 172.1 29.7 172.1 34.5 171.4 34.5"/>
    <rect class="st0" x="175.5" y="29.1" width=".7" height="5.4"/>
    <g>
      <path class="st0" d="M198,21.6c-.1.2-.2.2-.4.2h-6.4V.8h2.6V0h-10.5v.8h2.6v21.1h-2.6v.8h15.8v-3.2c-.4.7-.8,1.4-1.1,2.1"/>
      <path class="st0" d="M110.1,9.1c-.5,1.8-1.8,3-3.6,3.3-.9.2-1.9,0-2.9,0V1h2.3c.9.1,1.7.3,2.4.8,1,.7,1.6,1.7,1.9,2.9.3,1.5.3,2.9,0,4.4M111.9.9C110.2.3,108.4.1,106.5,0h-10.9v.8h2.6v21.1h-2.6v.8h11.3v-.8h-3.4v-8.4h.3c1.4,0,2.7,0,4.1,0s2.7-.3,4-.8,2.4-1.2,3.2-2.4c.6-.9.9-2,.9-3.1.1-1.4-.2-2.7-1-3.9-.7-1.1-1.8-1.8-3.1-2.3"/>
      <path class="st0" d="M132.2,7.8h.4c.3,0,.4-.1.5-.3,1-2.1,2.1-4.2,3.1-6.3.1-.1.2-.2.3-.2h3.3v20.9h-2.9v.8h11.2v-.8h-2.9V1h3.3c.2,0,.3.1.4.3,1.1,2.1,2.1,4.2,3.2,6.3,0,.1.1.2.2.2h.7V0h-20.9v7.8h0Z"/>
      <path class="st0" d="M75.4,13.8c1.3-3.3,2.5-6.7,3.8-10,1.3,3.4,2.6,6.7,4,10h-7.8ZM92.3,21.9c-.2,0-.3,0-.3-.2-2.4-6.2-4.9-12.5-7.3-18.7-.4-1-.8-2-1.2-3h-5.8c.2.6.5,1.3.7,1.9v.4c-2.4,6.4-4.8,12.8-7.2,19.2,0,.3-.2.4-.5.4h-1.9v.8h8.3v-.5c0-.2,0-.3-.2-.4-.9-.4-1.9-.8-2.8-1.2-.3-.2-.7-.3-1-.5.6-1.7,1.3-3.4,1.9-5.1,0-.2.2-.3.4-.3h8c.2,0,.3,0,.4.3.8,2.1,1.6,4.1,2.4,6.2,0,.2.2.5.3.7h-2.7v.8h10.8v-.8h-2.3"/>
      <path class="st0" d="M60.3,0C59.5,0,58.7,0,58,.1c-1.8.2-3.5.6-5.2,1.5-4.7,2.4-6.8,7.2-5.8,12.1.7,3.4,2.7,5.9,5.8,7.5,2.2,1.1,4.5,1.6,7,1.6h6.4v-7.3h-.3c-.3,0-.5,0-.7.4-1.1,1.9-2.2,3.8-3.2,5.8,0,0,0,.2-.3.2-.8,0-1.7,0-2.5,0-2.2-.2-3.9-1.2-5-3.1-.9-1.6-1.3-3.5-1.4-5.3,0-1.6,0-3.2,0-4.7.2-1.4.5-2.8,1.2-4.1,1-1.8,2.4-3,4.5-3.4,1.2-.2,2.3-.1,3.5-.1s.2.1.2.1c.2.4.4.8.7,1.2.9,1.5,1.7,3.1,2.6,4.6,0,.1,0,.2.2.2h.7V.1h-.8C63.9,0,62.1,0,60.3,0"/>
    </g>
    <polygon class="st0" points="118.9 .8 121.5 .8 121.5 21.9 118.9 21.9 118.9 22.7 129.4 22.7 129.4 21.9 126.8 21.9 126.8 .8 129.4 .8 129.4 0 118.9 0 118.9 .8"/>
    <path class="st0" d="M174.9,4.8h-.1c0-.1-1.1-2.8-1.1-2.8l4,4-2.8-1.2ZM177.6,11.5v-.2l1.1-2.7v5.7l-1.1-2.8ZM174.8,18.2h.1c0,0,2.7-1.2,2.7-1.2l-4,4,1.2-2.8ZM168,20.9h.2l2.7,1.1h-5.7l2.8-1.1ZM161.4,18h.1c0,0,1.1,2.8,1.1,2.8l-4-4,2.8,1.2ZM158.7,11.3v.2l-1.1,2.7v-5.7l1.1,2.8ZM161.5,4.6h-.1c0,.1-2.7,1.2-2.7,1.2l4-4-1.2,2.8ZM168.3,1.9h-.2l-2.7-1.1h5.7l-2.8,1.1ZM171,4.5l-2-2,3.5-1.4,1.4,3.5h-2.9ZM175.1,14.2l2-2,1.4,3.5-3.5,1.4v-2.9h.1ZM171,18.3h2.9l-1.4,3.5-3.5-1.4,2-2.1ZM165.3,18.3l2,2-3.5,1.4-1.4-3.5h2.9ZM161.3,8.5l-2,2-1.4-3.5,3.5-1.4v2.9h-.1ZM165.3,4.5h-2.9l1.4-3.5,3.5,1.4-2,2.1ZM166.4,4.5l1.8-1.8,1.8,1.8h-3.6ZM164.5,5.3l-2.5,2.5v-2.5h2.5ZM161.3,13.1l-1.8-1.8,1.8-1.8v3.6ZM162,17.5v-2.5l2.5,2.5h-2.5ZM169.9,18.3l-1.8,1.8-1.8-1.8h3.6ZM171.8,17.5l2.5-2.5v2.5h-2.5ZM175.1,9.6l1.8,1.8-1.8,1.8v-3.6ZM174.3,8.8v5.1l-3.6,3.6h-5.1l-3.6-3.6v-5.1l3.6-3.6h5.1l3.6,3.6ZM174.3,5.3v2.5l-2.5-2.5h2.5ZM157.8,15.7l1.4-3.5,2,2v2.9l-3.4-1.4ZM178.5,7.1l-1.4,3.5-2-2v-2.9l3.4,1.4ZM163.4,0l-6.7,6.7v9.4l6.7,6.7h9.4l6.7-6.7V6.7L172.8,0S163.4,0,163.4,0Z"/>
  </g>
  <g>
    <polygon class="st1" points="0 10.8 19.7 34.4 25.4 27.6 5.7 4 0 10.8"/>
    <polygon class="st1" points="24.5 9.8 16.4 .1 9 .1 7 2.5 18.8 16.6 24.5 9.8"/>
    <polygon class="st1" points="30.4 .1 19 .1 33.6 17.7 39.3 10.8 30.4 .1"/>
  </g>
</svg>