<?xml version="1.0" encoding="UTF-8"?>
<!-- Generator: Adobe Illustrator 27.7.0, SVG Export Plug-In . SVG Version: 6.00 Build 0)  -->
<svg xmlns="http://www.w3.org/2000/svg" xmlns:xlink="http://www.w3.org/1999/xlink" version="1.1" id="Vrstva_1" x="0px" y="0px" viewBox="0 0 280.9 108" style="enable-background:new 0 0 280.9 108;" xml:space="preserve" width="312" height="120">
<style type="text/css">
	.st0{fill:#004081;}
	.st1{fill:#FFDD00;}
</style>
<g>
	<path d="M78.2,107.5c0.4,0.3,1.3,0.5,2.1,0.5c1.9,0,2.8-1.1,2.8-2.3c0-1.2-0.7-1.8-2.1-2.4c-1.1-0.4-1.6-0.8-1.6-1.6   c0-0.6,0.4-1.2,1.5-1.2c0.7,0,1.3,0.2,1.5,0.4l0.3-0.9c-0.3-0.2-1-0.4-1.8-0.4c-1.6,0-2.6,0.9-2.6,2.2c0,1.1,0.8,1.8,2.1,2.3   c1.1,0.4,1.5,0.9,1.5,1.6c0,0.8-0.6,1.4-1.7,1.4c-0.7,0-1.4-0.2-1.9-0.5L78.2,107.5z M75.4,107.9h1.1v-8.1h-1.1V107.9z M71.5,107.9   l2.9-8.1h-1.1l-1.4,4c-0.4,1.1-0.7,2.1-0.9,3h0c-0.2-0.9-0.5-1.9-0.9-3l-1.3-4h-1.1l2.7,8.1H71.5z M62.7,100.6c0.2,0,0.5-0.1,1-0.1   c1.1,0,1.9,0.5,1.9,1.5c0,0.9-0.7,1.5-1.8,1.5h-1.1V100.6z M61.6,107.9h1v-3.5h1c0.9,0,1.4,0.5,1.6,1.6c0.2,1,0.4,1.7,0.5,1.9h1.1   c-0.2-0.3-0.4-1.1-0.6-2.2c-0.2-0.8-0.6-1.4-1.2-1.6v0c0.8-0.3,1.5-1,1.5-2.1c0-0.6-0.2-1.2-0.6-1.5c-0.5-0.4-1.2-0.7-2.3-0.7   c-0.7,0-1.5,0.1-2,0.2V107.9z M59.7,103.2h-3.1v-2.6h3.3v-0.9h-4.4v8.1H60V107h-3.5v-2.9h3.1V103.2z M48.9,107.5   c0.4,0.3,1.3,0.5,2.1,0.5c1.9,0,2.8-1.1,2.8-2.3c0-1.2-0.7-1.8-2.1-2.4c-1.1-0.4-1.6-0.8-1.6-1.6c0-0.6,0.4-1.2,1.5-1.2   c0.7,0,1.3,0.2,1.5,0.4l0.3-0.9c-0.3-0.2-1-0.4-1.8-0.4c-1.6,0-2.6,0.9-2.6,2.2c0,1.1,0.8,1.8,2.1,2.3c1.1,0.4,1.5,0.9,1.5,1.6   c0,0.8-0.6,1.4-1.7,1.4c-0.7,0-1.4-0.2-1.9-0.5L48.9,107.5z M43,98l-1.1,1.4h0.9l1.5-1.4H43z M42.9,107.9v-3.4l2.7-4.6h-1.2   l-1.2,2.2c-0.3,0.6-0.6,1.1-0.8,1.7h0c-0.3-0.6-0.5-1.1-0.8-1.7l-1.1-2.2h-1.2l2.6,4.7v3.4H42.9z M33,107.9v-3.5   c0-1.3,0-2.3-0.1-3.3l0,0c0.4,0.9,0.9,1.8,1.5,2.7l2.6,4.1h1.1v-8.1h-1v3.4c0,1.3,0,2.2,0.1,3.3l0,0c-0.4-0.8-0.9-1.7-1.4-2.6   l-2.6-4.1H32v8.1H33z M27.3,107.9h1.1v-7.2h2.5v-0.9h-6v0.9h2.5V107.9z M19.2,107.5c0.4,0.3,1.3,0.5,2.1,0.5c1.9,0,2.8-1.1,2.8-2.3   c0-1.2-0.7-1.8-2.1-2.4c-1.1-0.4-1.6-0.8-1.6-1.6c0-0.6,0.4-1.2,1.5-1.2c0.7,0,1.3,0.2,1.5,0.4l0.3-0.9c-0.3-0.2-1-0.4-1.8-0.4   c-1.6,0-2.6,0.9-2.6,2.2c0,1.1,0.8,1.8,2.1,2.3c1.1,0.4,1.5,0.9,1.5,1.6c0,0.8-0.6,1.4-1.7,1.4c-0.7,0-1.4-0.2-1.9-0.5L19.2,107.5z    M16.5,107.9h1.1v-8.1h-1.1V107.9z M11.3,100.5c1.7,0,2.6,1.7,2.6,3.3c0,1.8-0.9,3.4-2.6,3.4c-1.7,0-2.6-1.5-2.6-3.3   C8.7,102.1,9.5,100.5,11.3,100.5 M11.3,99.6c-2.2,0-3.7,1.7-3.7,4.2c0,2.4,1.5,4.1,3.6,4.1c2.1,0,3.8-1.5,3.8-4.3   C14.9,101.3,13.5,99.6,11.3,99.6 M2.5,100.6c0.2,0,0.5-0.1,1-0.1c1.1,0,1.9,0.5,1.9,1.6c0,1.1-0.8,1.7-2,1.7c-0.3,0-0.6,0-0.9-0.1   V100.6z M1.4,107.9h1v-3.2c0.2,0.1,0.5,0.1,0.8,0.1c1,0,1.9-0.3,2.5-0.9c0.4-0.4,0.6-1,0.6-1.7c0-0.7-0.3-1.3-0.7-1.7   c-0.5-0.4-1.2-0.7-2.3-0.7c-0.8,0-1.5,0.1-2,0.2V107.9z"></path>
	<path class="st0" d="M254.9,58.5c0,0-11.8,0.1-17.4,0c-0.1-0.9-0.2-2-0.6-2.7c-0.3-0.6-0.8-0.9-1.5-1c-0.8-0.1-2.3,0.6-2.4,1.8   c-0.2,1.7,1.1,2.9,2.2,3.3c0.5,0.2,2.3,1,2.8,1.2c1,0.4,1.9,0.7,2.9,1.1c0.5,0.2,4.2,1.7,4.4,1.8c0.7,0.2,5.4,2.4,6.8,3.2   c0.4,0.2,0.7,0.5,1,0.7c0.3,0.2,0.8,0.9,1,1.4c0.1,0.2,0.7,1.4,1,3.4c0.3,1.9,0.3,8.9,0,10.4c-0.5,2.7-2,4.4-2.6,5   c-1.9,1.6-5,2.2-6.9,2.1h-19.9c-0.9,0-6.4-0.4-8.7-3.1c-0.7-0.9-1.3-2.4-1.4-2.9c-0.1-0.6-0.2-1-0.2-1.4c0-1.6,0-8.9,0-8.9   s12.1,0,17.8,0.1c0.1,1.8-0.1,3.4,0.3,4.9c0.3,0.8,1.3,1.6,2.5,1.4c0.5-0.1,0.8-0.3,1.2-0.7c0.4-0.5,0.5-0.8,0.5-1.5   c0-0.7,0.1-3.2-0.3-4.1c-0.5-1-1.2-1.4-2.1-1.7c-0.9-0.3-3.9-1.4-4.3-1.6c-0.4-0.2-2.8-1.1-2.8-1.1s-3.1-1.3-3.5-1.5   c-1.1-0.5-2.3-0.9-3.5-1.5c-0.8-0.4-2.7-1.6-3.1-1.8c-0.9-0.6-2.2-2-2.5-3.9c-0.2-1.9-0.2-3.6-0.2-4.8c0-1.2,0-3.4,0-5.1   c0,0,1.2-0.7,1.6-1c2.4-1.5,6.2-4.9,6.2-4.9s5.3,0,7,0h10c1.7,0,6,0.1,6.3,0.1c0.3,0,1.8,0.2,2.7,0.5c0.3,0.1,1.2,0.3,2.8,1.3   c1.5,0.9,2.6,2.6,2.8,3.9C255,52.5,254.9,58.5,254.9,58.5"></path>
	<path class="st0" d="M63.1,55c-1.4,0-1.8,0.8-1.9,1c-0.5,1.6-0.3,4.4-0.3,6.6c0,3.3,0,7,0,10.2c0,1.1,0,2.6,0,3.9   c0,1.1,0,2.1,0.4,2.6c0.8,1,2.9,0.9,3.7,0c0.4-0.9,0.4-2.1,0.4-3.4c0-1,0-2.1,0-3.2c0-3.4,0-7,0-10.2c0-1.2,0-2.6,0-3.9   C65.4,57.5,65.4,55,63.1,55 M74.7,90.2c-6.9,0-13.7,0-20.9,0c-1,0-3.3,0-5.5-0.7c-2.1-0.7-3.5-2-4.3-3.8c-0.3-0.6-0.7-2.2-0.8-3   c-0.1-0.9-0.1-2.4-0.1-3.7c0-8.3,0-16.8,0-25.2c0-0.6,0-1.2,0.1-1.7c0.1-2.4,2.2-4.8,3.4-5.5c1-0.7,3.8-1.5,5.6-1.6   c1.7-0.1,3.8,0,5.7,0h14.5c1,0,1.7,0,2.8,0.1c1.4,0.1,3.4,0.9,3.6,1c3.5,1.4,4.1,5.7,4.2,5.9c0.2,1.1,0.1,2.5,0.1,3.8   c0,7.6,0,15.4,0,23.1c0,1.3-0.1,2.5-0.1,3.7c-0.1,2.7-1.9,5.1-3,5.8C78.9,89.2,76.8,90.1,74.7,90.2"></path>
	<path class="st0" d="M136.1,56.1c-0.2,0.5-0.2,1-0.3,1.6c-0.1,2.1-0.1,3.3-0.1,4.8c0,4.1,0,9,0,12.9c0,0.5,0,1,0,1.5   c0,2,0.9,2.8,1.4,3c0.9,0.3,2.3-0.1,2.7-0.5c0.8-0.8,0.6-3.2,0.6-5.2V62.7c0-1.9,0-4.5-0.1-5.7c0-1.3-1.5-2.3-2.6-2.1   C137.2,55,136.5,55.3,136.1,56.1 M126.9,45.1c6.5-0.1,13.9-0.1,20.6-0.1c0.9,0,1.9,0,2.8,0.1c1,0.1,2.9,0.5,3.7,1   c1,0.6,1.9,1.2,2.7,2.2c1.4,2,1.5,4.2,1.6,4.9c0,0.9-0.1,2.2-0.1,3.4c0,6.9,0,14.1,0,21c0,1.2-0.2,4-0.3,5.2   c-0.3,2.3-1.2,4.2-2.5,5.4c-0.7,0.7-3,1.9-7.1,2h-19.5c-3.9,0-6.1-0.8-7.1-1.6c-0.8-0.6-3.3-2.3-3.2-9.4c0-7.6,0-15.7,0-23.5   c0-1.3-0.1-2.9,0.1-4c0.3-2.7,2.1-4.4,3.2-5.1c0.7-0.4,1.4-0.9,2.4-1.1c0.2-0.1,1.5-0.4,1.7-0.4C126.2,45.1,126.4,45.1,126.9,45.1"></path>
	<path class="st0" d="M104.4,45.2l0.2,34.5c0,0,7.3,0,10.5,0c0.1,3,0,10.2,0,10.2s-20,0-28,0C87,76.6,87,61.6,87,47.6   c0-0.5,0-2.4,0-2.4L104.4,45.2z"></path>
	<path class="st0" d="M190.1,55.2c-1.8,0-10.6,0-10.6,0s0,3.7,0,4.9c2,0,10.7,0,10.7,0l0,10.3l-10.7,0.2l-0.1,19.3h-17.2   c0,0-0.1-28.2-0.1-42.3c0-1,0-1.7,0-2.5c0.7,0,2.2,0,3.1,0H180c0.9,0,1.5,0,2.5,0c2,2.3,6.8,5.4,7.7,5.9   C190.2,51.9,190.1,54.3,190.1,55.2"></path>
	<path class="st0" d="M211.4,89.9c0,0-10.2-0.1-15.3-0.1c-0.7,0-2,0-2,0S194,66.5,194,54.7c0-0.8,0-2.2,0-2.2s0.7,0.2,1.2,0.3   c0.4,0.1,1.8,0.5,2.1,0.5c3.5,0.6,8.3,0.6,12.1-0.5c0.7-0.2,1.1-0.3,1.5-0.4c0.2-0.1,0.6-0.2,0.6-0.2s0,6.6,0,9.1   C211.5,71,211.4,89.9,211.4,89.9"></path>
	<path class="st0" d="M22.1,72.9c0-4.4-0.1-9.1,0-13.3c0.1-2.6-0.5-3.3-0.6-3.5c-0.8-0.8-4-0.6-4-0.6s0,1.9,0,2.8   c0,7.1,0.1,21.3,0.1,21.3s2.3,0,3.3,0C22.4,79.5,22.1,75.8,22.1,72.9 M0.1,89.7C0,76.1,0,61.6,0,47.7c0-0.5,0-1.7,0-2.5   c7.3-0.1,15.3-0.1,22.7-0.1c2.5,0,5.1-0.3,7.4,0c0.4,0,2.4,0.4,2.9,0.5c0.3,0,3,1,3.2,1.1c0.2,0.1,2.4,2.4,2.8,3.4   c0.1,0.3,0.4,1.3,0.5,1.6c0.2,1.1,0.1,2.5,0.1,3.8c0,6.4,0,12.9,0,19.3c0,2.6,0.1,5.4-0.1,7.7c0,1-0.4,2.1-0.5,2.4   c-0.1,0.4-0.5,1-0.7,1.5c-1.5,2.4-4.6,3.4-8.5,3.4C19.8,89.8,9.8,89.9,0.1,89.7"></path>
	<path class="st1" d="M229.9,27.2c0,15-12.2,27.2-27.2,27.2c-15,0-27.2-12.2-27.2-27.2c0-15,12.2-27.2,27.2-27.2   C217.7,0,229.9,12.2,229.9,27.2"></path>
	<path class="st0" d="M262.8,83.6l-1.2,0.4c-0.2-0.5-0.5-0.8-0.9-0.8c-0.3,0-0.5,0.2-0.5,0.5c0,0.2,0.1,0.4,0.2,0.5   c0.1,0.1,0.4,0.2,0.8,0.4c0.5,0.2,0.8,0.3,1,0.4c0.2,0.1,0.4,0.3,0.5,0.6c0.1,0.2,0.2,0.5,0.2,0.9c0,0.6-0.2,1-0.6,1.4   c-0.4,0.4-1,0.6-1.7,0.6c-1.4,0-2.1-0.6-2.3-1.8l1.3-0.2c0.1,0.6,0.4,0.9,0.9,0.9c0.4,0,0.7-0.2,0.7-0.6c0-0.2-0.1-0.4-0.2-0.5   c-0.1-0.1-0.4-0.2-0.8-0.3c-0.7-0.2-1.2-0.5-1.4-0.8c-0.3-0.3-0.4-0.7-0.4-1.1c0-0.6,0.2-1,0.6-1.4c0.4-0.4,0.9-0.5,1.5-0.5   C261.8,82,262.5,82.5,262.8,83.6"></path>
</g>
<rect x="264" y="86.3" class="st0" width="1.7" height="1.8"></rect>
<g>
	<path class="st0" d="M267,82.1h1.5v1.5c0.3-1,0.7-1.5,1.4-1.5c0.1,0,0.2,0,0.3,0v1.6c-0.1,0-0.2,0-0.3,0c-0.8,0-1.2,0.6-1.2,1.9   v2.6H267V82.1z"></path>
</g>
<rect x="270.4" y="86.3" class="st0" width="1.7" height="1.8"></rect>
<g>
	<path class="st0" d="M276.4,85.1c0-0.8-0.1-1.3-0.2-1.6c-0.1-0.3-0.3-0.4-0.6-0.4c-0.3,0-0.4,0.1-0.5,0.4c-0.1,0.3-0.2,0.8-0.2,1.6   c0,0.7,0,1.3,0.1,1.5c0.1,0.3,0.3,0.4,0.6,0.4c0.3,0,0.5-0.1,0.6-0.4C276.3,86.4,276.4,85.9,276.4,85.1 M278.1,85.1   c0,2.1-0.8,3.1-2.4,3.1c-1.6,0-2.5-1-2.5-3.1c0-2.1,0.8-3.1,2.5-3.1C277.3,82,278.1,83,278.1,85.1"></path>
</g>
<rect x="279.2" y="86.3" class="st0" width="1.7" height="1.8"></rect>
</svg>
